<svg xmlns="http://www.w3.org/2000/svg" width="75" height="75"><polygon fill="#5B5B61" points="45.986,55.653 38.205,60.713 30.08,55.282 30.08,61.111 38.205,66.586 45.986,61.495"/><polygon fill="#5B5B61" points="56.84,8.599 40.973,27.596 46.927,27.596 56.103,16.767 56.103,24.735 60.895,27.853 60.895,8.599"/><polygon fill="#5B5B61" points="15.027,8.599 15.027,27.911 19.833,24.735 19.833,16.767 28.994,27.596 35.292,27.596 19.424,8.599"/><polygon fill="#16161D" points="19.833,48.676 10.848,42.975 19.833,37.272 19.833,31.835 5.08,41.465 5.08,44.483 19.833,54.113"/><polygon fill="#16161D" points="56.103,31.833 56.103,37.269 65.104,42.975 56.103,48.686 56.103,54.123 70.871,44.483 70.871,41.465"/></svg>
