<?xml version="1.0" encoding="utf-8"?>
<!-- Generator: Adobe Illustrator 16.2.1, SVG Export Plug-In . SVG Version: 6.00 Build 0)  -->
<!DOCTYPE svg PUBLIC "-//W3C//DTD SVG 1.1//EN" "http://www.w3.org/Graphics/SVG/1.1/DTD/svg11.dtd">
<svg version="1.1" id="Layer_1" xmlns="http://www.w3.org/2000/svg" xmlns:xlink="http://www.w3.org/1999/xlink" x="0px" y="0px"
	 width="75px" height="75px" viewBox="0 0 75 75" enable-background="new 0 0 75 75" xml:space="preserve">
<g>
	<polygon fill="#FFFFFF" points="37.5,20.278 32.359,20.278 25.453,6.195 17.812,25.853 7.529,31.28 18.107,36.195 7.529,41.738 
		17.466,46.986 37.574,71 57.682,46.979 67.62,41.709 57.042,36.152 67.62,31.2 57.334,25.697 49.695,6.194 42.789,20.278 	"/>
</g>
<g>
	<polygon fill="#FF0000" points="67.62,31.2 43.812,18.308 42.499,20.77 32.486,20.77 31.501,18.472 7.537,31.275 17.877,36.527 
		30,36.527 30,61 33.655,64.352 41.494,64.35 45,61 45,36.527 58.092,36.527 	"/>
</g>
<g>
	<path d="M37.575,74.895l-21.71-25.927L2.159,41.729l10.305-5.4L1.902,31.422l13.917-7.345L25.188,1l8.729,17h7.313l8.721-16.983
		l9.375,22.91l13.872,7.422l-10.535,4.931l10.313,5.418l-13.691,7.259L37.575,74.895z M12.898,41.747l6.169,3.258l18.506,22.101
		l18.504-22.106l6.186-3.28l-10.843-5.696l10.621-4.972l-6.7-3.584l-5.902-14.048L44.348,23H30.8l-5.082-9.562l-5.914,14.191
		l-6.649,3.509L23.75,36.06L12.898,41.747z"/>
</g>
<g>
	<rect x="45" y="34" width="15.676" height="5"/>
</g>
<g>
	<rect x="14.324" y="34" width="15.676" height="5"/>
</g>
<g>
	<polygon points="37.544,70.812 44.88,62.133 30.515,62.133 	"/>
</g>
<g>
	<polygon fill="#FFFFFF" points="-43.834,20.278 -48.975,20.278 -55.881,6.195 -63.522,25.853 -73.805,31.28 -63.227,36.195 
		-73.805,41.738 -63.868,46.986 -43.76,71 -23.652,46.979 -13.714,41.709 -24.292,36.152 -13.714,31.2 -24,25.697 -31.639,6.194 
		-38.545,20.278 	"/>
</g>
<g>
	<polygon fill="#FF0000" points="-13.714,31.2 -37.521,18.308 -38.835,20.77 -48.848,20.77 -49.833,18.472 -73.797,31.275 
		-63.457,36.527 -51.334,36.527 -51.334,61 -47.679,64.352 -39.84,64.35 -36.334,61 -36.334,36.527 -23.242,36.527 	"/>
</g>
<g>
	<path d="M-43.759,74.895l-21.71-25.927l-13.705-7.238l10.305-5.4l-10.562-4.907l13.917-7.345L-56.146,1l8.729,17h7.313
		l8.721-16.983l9.375,22.91l13.872,7.422l-10.535,4.931l10.313,5.418l-13.691,7.259L-43.759,74.895z M-68.436,41.747l6.169,3.258
		l18.506,22.101l18.504-22.106l6.186-3.28l-10.843-5.696l10.621-4.972l-6.7-3.584l-5.902-14.048L-36.986,23h-13.547l-5.082-9.562
		l-5.914,14.191l-6.649,3.509l10.595,4.923L-68.436,41.747z"/>
</g>
<g>
	<rect x="-36.334" y="34" width="15.676" height="5"/>
</g>
<g>
	<rect x="-67.01" y="34" width="15.676" height="5"/>
</g>
<g>
	<polygon points="-43.79,70.812 -36.454,62.133 -50.819,62.133 	"/>
</g>
</svg>
