<?xml version="1.0" encoding="utf-8"?>
<!-- Generator: Adobe Illustrator 16.2.1, SVG Export Plug-In . SVG Version: 6.00 Build 0)  -->
<!DOCTYPE svg PUBLIC "-//W3C//DTD SVG 1.1//EN" "http://www.w3.org/Graphics/SVG/1.1/DTD/svg11.dtd">
<svg version="1.1" id="Layer_1" xmlns="http://www.w3.org/2000/svg" xmlns:xlink="http://www.w3.org/1999/xlink" x="0px" y="0px"
	 width="75px" height="75px" viewBox="0 0 75 75" enable-background="new 0 0 75 75" xml:space="preserve">
<polygon fill="#FFFFFF" points="37.5,20.278 32.359,20.278 25.453,6.195 17.812,25.853 7.529,31.28 18.107,36.195 7.529,41.738 
	17.466,46.986 37.574,71 57.682,46.979 67.62,41.709 57.042,36.152 67.62,31.2 57.334,25.697 49.695,6.194 42.789,20.278 "/>
<polygon fill="#FF0000" points="67.62,31.2 43.812,18.308 42.499,20.77 32.486,20.77 31.501,18.472 7.537,31.275 17.877,36.527 
	29.531,36.527 29.531,59.18 33.655,64.352 41.494,64.35 45.29,59.26 45.29,36.527 58.092,36.527 "/>
<polygon fill="none" stroke="#000000" stroke-width="5" stroke-miterlimit="10" points="37.5,20.278 32.359,20.278 25.453,6.195 
	17.812,25.853 7.529,31.28 18.107,36.195 7.529,41.738 17.466,46.986 37.574,71 57.682,46.979 67.62,41.709 57.042,36.152 
	67.62,31.2 57.334,25.697 49.695,6.194 42.789,20.278 "/>
<line fill="none" stroke="#000000" stroke-width="5" stroke-miterlimit="10" x1="45.25" y1="35.882" x2="60.926" y2="35.882"/>
<line fill="none" stroke="#000000" stroke-width="5" stroke-miterlimit="10" x1="13.896" y1="35.882" x2="29.572" y2="35.882"/>
<polygon points="37.544,70.812 44.88,62.133 30.515,62.133 "/>
</svg>
